<svg width="42" height="42" viewBox="0 0 42 42" fill="none" xmlns="http://www.w3.org/2000/svg">
<path d="M38.5868 0.12143L12.3386 7.87275C11.8058 8.04012 11.3402 8.37305 11.0096 8.82316C10.679 9.27327 10.5006 9.81709 10.5002 10.3756V31.8199C9.64066 31.6112 8.75972 31.5033 7.87519 31.4983C3.52743 31.4983 0 33.8494 0 36.7484C0 39.6475 3.52743 41.9985 7.87519 41.9985C12.2229 41.9985 15.7504 39.6475 15.7504 36.7484V17.5789L36.7509 11.4264V26.5706C35.8914 26.3612 35.0104 26.253 34.1258 26.2482C29.778 26.2482 26.2506 28.5992 26.2506 31.4983C26.2506 34.3974 29.778 36.7484 34.1258 36.7484C38.4736 36.7484 42.001 34.3982 42.001 31.4983V2.62262C42.0006 2.21052 41.9032 1.8043 41.7167 1.43683C41.5301 1.06936 41.2597 0.750978 40.9273 0.507439C40.5948 0.2639 40.2097 0.102051 39.8031 0.03499C39.3965 -0.0320707 38.9798 -0.00245859 38.5868 0.12143Z" fill="black" fill-opacity="0.92"/>
</svg>
